<mxfile host="app.diagrams.net" modified="2024-05-18T07:36:14.656Z" agent="Mozilla/5.0 (X11; Linux x86_64) AppleWebKit/537.36 (KHTML, like Gecko) Chrome/124.0.0.0 Safari/537.36" etag="DDLFgVdmwcJRaDB-05bG" version="24.4.4" type="google">
  <diagram name="Page-1" id="5f0bae14-7c28-e335-631c-24af17079c00">
    <mxGraphModel grid="1" page="1" gridSize="10" guides="1" tooltips="1" connect="1" arrows="1" fold="1" pageScale="1" pageWidth="1100" pageHeight="850" background="none" math="0" shadow="0">
      <root>
        <mxCell id="0" />
        <mxCell id="1" parent="0" />
        <mxCell id="8MP68DYETxA-DF6JIzfu-5" style="edgeStyle=elbowEdgeStyle;rounded=0;html=1;labelBackgroundColor=none;startArrow=none;startFill=0;startSize=8;endArrow=none;endFill=0;endSize=16;fontFamily=Verdana;fontSize=12;entryX=0.5;entryY=1;entryDx=0;entryDy=0;" edge="1" parent="1" target="8MP68DYETxA-DF6JIzfu-57">
          <mxGeometry relative="1" as="geometry">
            <mxPoint x="300" y="825" as="sourcePoint" />
            <mxPoint x="75" y="825" as="targetPoint" />
            <Array as="points">
              <mxPoint x="290" y="820" />
            </Array>
          </mxGeometry>
        </mxCell>
        <mxCell id="8MP68DYETxA-DF6JIzfu-15" style="edgeStyle=elbowEdgeStyle;rounded=0;html=1;labelBackgroundColor=none;startArrow=none;startFill=0;startSize=8;endArrow=none;endFill=0;endSize=16;fontFamily=Verdana;fontSize=12;entryX=1;entryY=0.5;entryDx=0;entryDy=0;" edge="1" parent="1" target="xF27UyO0y4YUkrMNO3qR-2">
          <mxGeometry relative="1" as="geometry">
            <mxPoint x="277" y="790" as="sourcePoint" />
            <mxPoint x="149" y="790" as="targetPoint" />
            <Array as="points">
              <mxPoint x="252" y="790" />
            </Array>
          </mxGeometry>
        </mxCell>
        <mxCell id="8MP68DYETxA-DF6JIzfu-19" value="" style="ellipse;whiteSpace=wrap;html=1;align=center;aspect=fixed;fillColor=none;strokeColor=none;resizable=0;perimeter=centerPerimeter;rotatable=0;allowArrows=0;points=[];outlineConnect=1;" vertex="1" parent="1">
          <mxGeometry x="385" y="725" width="10" height="10" as="geometry" />
        </mxCell>
        <mxCell id="8MP68DYETxA-DF6JIzfu-21" value="" style="rounded=0;orthogonalLoop=1;jettySize=auto;html=1;endArrow=halfCircle;endFill=0;endSize=6;strokeWidth=1;sketch=0;" edge="1" parent="1">
          <mxGeometry relative="1" as="geometry">
            <mxPoint x="275" y="790" as="sourcePoint" />
            <mxPoint x="295" y="790" as="targetPoint" />
          </mxGeometry>
        </mxCell>
        <mxCell id="8MP68DYETxA-DF6JIzfu-26" value="" style="rounded=0;orthogonalLoop=1;jettySize=auto;html=1;endArrow=oval;endFill=0;sketch=0;sourcePerimeterSpacing=0;targetPerimeterSpacing=0;endSize=10;" edge="1" parent="1" source="8MP68DYETxA-DF6JIzfu-27">
          <mxGeometry relative="1" as="geometry">
            <mxPoint x="296" y="790" as="targetPoint" />
          </mxGeometry>
        </mxCell>
        <mxCell id="8MP68DYETxA-DF6JIzfu-27" value="" style="ellipse;whiteSpace=wrap;html=1;align=center;aspect=fixed;fillColor=none;strokeColor=none;resizable=0;perimeter=centerPerimeter;rotatable=0;allowArrows=0;points=[];outlineConnect=1;" vertex="1" parent="1">
          <mxGeometry x="340" y="785" width="10" height="10" as="geometry" />
        </mxCell>
        <mxCell id="8MP68DYETxA-DF6JIzfu-28" value="" style="shape=providedRequiredInterface;html=1;verticalLabelPosition=bottom;sketch=0;" vertex="1" parent="1">
          <mxGeometry x="299" y="815" width="20" height="20" as="geometry" />
        </mxCell>
        <mxCell id="8MP68DYETxA-DF6JIzfu-43" value="" style="swimlane;startSize=0;strokeWidth=1;" vertex="1" parent="1">
          <mxGeometry x="350" y="660" width="720" height="391" as="geometry" />
        </mxCell>
        <mxCell id="8MP68DYETxA-DF6JIzfu-41" value="«&lt;b&gt;Component&lt;/b&gt;»&lt;br&gt;&lt;b&gt;Input Validation&lt;/b&gt;" style="html=1;dropTarget=0;whiteSpace=wrap;" vertex="1" parent="8MP68DYETxA-DF6JIzfu-43">
          <mxGeometry x="195" y="83" width="180" height="90" as="geometry" />
        </mxCell>
        <mxCell id="8MP68DYETxA-DF6JIzfu-42" value="" style="shape=module;jettyWidth=8;jettyHeight=4;" vertex="1" parent="8MP68DYETxA-DF6JIzfu-41">
          <mxGeometry x="1" width="20" height="20" relative="1" as="geometry">
            <mxPoint x="-27" y="7" as="offset" />
          </mxGeometry>
        </mxCell>
        <mxCell id="8MP68DYETxA-DF6JIzfu-44" value="«&lt;b&gt;Component&lt;/b&gt;»&lt;br&gt;&lt;b&gt;TCP Connection&lt;/b&gt;" style="html=1;dropTarget=0;whiteSpace=wrap;" vertex="1" parent="8MP68DYETxA-DF6JIzfu-43">
          <mxGeometry x="190" y="240" width="180" height="90" as="geometry" />
        </mxCell>
        <mxCell id="8MP68DYETxA-DF6JIzfu-45" value="" style="shape=module;jettyWidth=8;jettyHeight=4;" vertex="1" parent="8MP68DYETxA-DF6JIzfu-44">
          <mxGeometry x="1" width="20" height="20" relative="1" as="geometry">
            <mxPoint x="-27" y="7" as="offset" />
          </mxGeometry>
        </mxCell>
        <mxCell id="8MP68DYETxA-DF6JIzfu-60" value="" style="shape=module;jettyWidth=29;jettyHeight=6;" vertex="1" parent="8MP68DYETxA-DF6JIzfu-43">
          <mxGeometry x="577" y="28" width="100" height="30" as="geometry" />
        </mxCell>
        <mxCell id="8MP68DYETxA-DF6JIzfu-73" value="" style="line;strokeWidth=1;fillColor=none;align=left;verticalAlign=middle;spacingTop=-1;spacingLeft=3;spacingRight=3;rotatable=0;labelPosition=right;points=[];portConstraint=eastwest;strokeColor=inherit;" vertex="1" parent="8MP68DYETxA-DF6JIzfu-43">
          <mxGeometry x="100" y="281" width="90" height="8" as="geometry" />
        </mxCell>
        <mxCell id="V1piQmJHkpiGvrlZvV0K-1" value="" style="whiteSpace=wrap;html=1;aspect=fixed;" vertex="1" parent="8MP68DYETxA-DF6JIzfu-43">
          <mxGeometry x="-10" y="154" width="20" height="20" as="geometry" />
        </mxCell>
        <mxCell id="V1piQmJHkpiGvrlZvV0K-14" value="" style="shape=providedRequiredInterface;html=1;verticalLabelPosition=bottom;sketch=0;direction=west;" vertex="1" parent="8MP68DYETxA-DF6JIzfu-43">
          <mxGeometry x="86" y="119" width="20" height="20" as="geometry" />
        </mxCell>
        <mxCell id="V1piQmJHkpiGvrlZvV0K-23" value="" style="shape=providedRequiredInterface;html=1;verticalLabelPosition=bottom;sketch=0;direction=south;" vertex="1" parent="8MP68DYETxA-DF6JIzfu-43">
          <mxGeometry x="40" y="189" width="20" height="20" as="geometry" />
        </mxCell>
        <mxCell id="V1piQmJHkpiGvrlZvV0K-25" value="" style="endArrow=none;html=1;rounded=0;entryX=0;entryY=0.75;entryDx=0;entryDy=0;" edge="1" parent="8MP68DYETxA-DF6JIzfu-43">
          <mxGeometry width="50" height="50" relative="1" as="geometry">
            <mxPoint x="50" y="209" as="sourcePoint" />
            <mxPoint x="190" y="310.5" as="targetPoint" />
            <Array as="points">
              <mxPoint x="50" y="309" />
              <mxPoint x="100" y="309" />
            </Array>
          </mxGeometry>
        </mxCell>
        <mxCell id="V1piQmJHkpiGvrlZvV0K-26" value="" style="endArrow=none;html=1;rounded=0;exitX=1;exitY=0.5;exitDx=0;exitDy=0;entryX=0;entryY=0.5;entryDx=0;entryDy=0;entryPerimeter=0;" edge="1" parent="8MP68DYETxA-DF6JIzfu-43" source="V1piQmJHkpiGvrlZvV0K-1" target="V1piQmJHkpiGvrlZvV0K-23">
          <mxGeometry width="50" height="50" relative="1" as="geometry">
            <mxPoint x="20" y="199" as="sourcePoint" />
            <mxPoint x="70" y="159" as="targetPoint" />
            <Array as="points">
              <mxPoint x="50" y="164" />
            </Array>
          </mxGeometry>
        </mxCell>
        <mxCell id="qbA84OS0jmrzjbinqBFZ-6" value="&amp;lt;&amp;lt;Account Controller&amp;gt;&amp;gt;" style="text;html=1;align=center;verticalAlign=middle;whiteSpace=wrap;rounded=0;strokeWidth=1;fontSize=22;" vertex="1" parent="8MP68DYETxA-DF6JIzfu-43">
          <mxGeometry x="150" y="15" width="250" height="51" as="geometry" />
        </mxCell>
        <mxCell id="8MP68DYETxA-DF6JIzfu-57" value="" style="swimlane;startSize=0;rotation=0;direction=north;" vertex="1" parent="1">
          <mxGeometry x="-360" y="697.5" width="530" height="255" as="geometry" />
        </mxCell>
        <mxCell id="8MP68DYETxA-DF6JIzfu-61" value="" style="shape=module;jettyWidth=29;jettyHeight=6;rotation=0;" vertex="1" parent="8MP68DYETxA-DF6JIzfu-57">
          <mxGeometry x="384" y="15" width="100" height="30" as="geometry" />
        </mxCell>
        <mxCell id="qbA84OS0jmrzjbinqBFZ-7" value="&lt;font style=&quot;font-size: 24px;&quot;&gt;&amp;lt;&amp;lt;&lt;b style=&quot;&quot;&gt;Window Manger&lt;/b&gt;&amp;gt;&amp;gt;&lt;/font&gt;" style="text;html=1;align=center;verticalAlign=middle;whiteSpace=wrap;rounded=0;fontSize=21;rotation=0;" vertex="1" parent="8MP68DYETxA-DF6JIzfu-57">
          <mxGeometry x="110" y="12.5" width="240" height="30" as="geometry" />
        </mxCell>
        <mxCell id="xF27UyO0y4YUkrMNO3qR-2" value="" style="whiteSpace=wrap;html=1;aspect=fixed;" vertex="1" parent="8MP68DYETxA-DF6JIzfu-57">
          <mxGeometry x="520" y="82.5" width="20" height="20" as="geometry" />
        </mxCell>
        <mxCell id="8MP68DYETxA-DF6JIzfu-62" value="" style="swimlane;startSize=0;" vertex="1" parent="1">
          <mxGeometry x="1110" y="700" width="730" height="340" as="geometry" />
        </mxCell>
        <mxCell id="8MP68DYETxA-DF6JIzfu-69" value="" style="shape=module;jettyWidth=29;jettyHeight=6;" vertex="1" parent="8MP68DYETxA-DF6JIzfu-62">
          <mxGeometry x="600" y="20" width="100" height="30" as="geometry" />
        </mxCell>
        <mxCell id="8MP68DYETxA-DF6JIzfu-50" value="&lt;div&gt;Request Handler&lt;/div&gt;" style="html=1;dropTarget=0;whiteSpace=wrap;" vertex="1" parent="8MP68DYETxA-DF6JIzfu-62">
          <mxGeometry x="130" y="120" width="180" height="90" as="geometry" />
        </mxCell>
        <mxCell id="8MP68DYETxA-DF6JIzfu-51" value="" style="shape=module;jettyWidth=8;jettyHeight=4;" vertex="1" parent="8MP68DYETxA-DF6JIzfu-50">
          <mxGeometry x="1" width="20" height="20" relative="1" as="geometry">
            <mxPoint x="-27" y="7" as="offset" />
          </mxGeometry>
        </mxCell>
        <mxCell id="8MP68DYETxA-DF6JIzfu-52" value="«&lt;b&gt;Component&lt;/b&gt;»&lt;br&gt;&lt;b&gt;DataBase&lt;/b&gt;" style="html=1;dropTarget=0;whiteSpace=wrap;" vertex="1" parent="8MP68DYETxA-DF6JIzfu-62">
          <mxGeometry x="480" y="120" width="180" height="90" as="geometry" />
        </mxCell>
        <mxCell id="8MP68DYETxA-DF6JIzfu-53" value="" style="shape=module;jettyWidth=8;jettyHeight=4;" vertex="1" parent="8MP68DYETxA-DF6JIzfu-52">
          <mxGeometry x="1" width="20" height="20" relative="1" as="geometry">
            <mxPoint x="-27" y="7" as="offset" />
          </mxGeometry>
        </mxCell>
        <mxCell id="qbA84OS0jmrzjbinqBFZ-3" value="&amp;lt;&amp;lt;Server&amp;gt;&amp;gt;" style="text;html=1;align=center;verticalAlign=middle;whiteSpace=wrap;rounded=0;fontSize=27;" vertex="1" parent="8MP68DYETxA-DF6JIzfu-62">
          <mxGeometry x="360" y="20" width="60" height="30" as="geometry" />
        </mxCell>
        <mxCell id="qbA84OS0jmrzjbinqBFZ-8" style="edgeStyle=orthogonalEdgeStyle;rounded=0;orthogonalLoop=1;jettySize=auto;html=1;exitX=0.5;exitY=1;exitDx=0;exitDy=0;" edge="1" parent="8MP68DYETxA-DF6JIzfu-62" source="qbA84OS0jmrzjbinqBFZ-3" target="qbA84OS0jmrzjbinqBFZ-3">
          <mxGeometry relative="1" as="geometry" />
        </mxCell>
        <mxCell id="qbA84OS0jmrzjbinqBFZ-9" value="" style="whiteSpace=wrap;html=1;aspect=fixed;" vertex="1" parent="8MP68DYETxA-DF6JIzfu-62">
          <mxGeometry x="-10" y="81" width="20" height="20" as="geometry" />
        </mxCell>
        <mxCell id="qbA84OS0jmrzjbinqBFZ-10" value="" style="rounded=0;orthogonalLoop=1;jettySize=auto;html=1;endArrow=halfCircle;endFill=0;endSize=6;strokeWidth=1;sketch=0;" edge="1" parent="8MP68DYETxA-DF6JIzfu-62" target="qbA84OS0jmrzjbinqBFZ-12">
          <mxGeometry relative="1" as="geometry">
            <mxPoint x="410" y="145" as="sourcePoint" />
          </mxGeometry>
        </mxCell>
        <mxCell id="qbA84OS0jmrzjbinqBFZ-11" value="" style="rounded=0;orthogonalLoop=1;jettySize=auto;html=1;endArrow=oval;endFill=0;sketch=0;sourcePerimeterSpacing=0;targetPerimeterSpacing=0;endSize=10;" edge="1" parent="8MP68DYETxA-DF6JIzfu-62" target="qbA84OS0jmrzjbinqBFZ-12">
          <mxGeometry relative="1" as="geometry">
            <mxPoint x="370" y="145" as="sourcePoint" />
            <Array as="points">
              <mxPoint x="380" y="145" />
            </Array>
          </mxGeometry>
        </mxCell>
        <mxCell id="qbA84OS0jmrzjbinqBFZ-12" value="" style="ellipse;whiteSpace=wrap;html=1;align=center;aspect=fixed;fillColor=none;strokeColor=none;resizable=0;perimeter=centerPerimeter;rotatable=0;allowArrows=0;points=[];outlineConnect=1;" vertex="1" parent="8MP68DYETxA-DF6JIzfu-62">
          <mxGeometry x="385" y="140" width="10" height="10" as="geometry" />
        </mxCell>
        <mxCell id="qbA84OS0jmrzjbinqBFZ-15" value="" style="endArrow=none;html=1;rounded=0;exitX=1;exitY=0.5;exitDx=0;exitDy=0;entryX=0;entryY=0.25;entryDx=0;entryDy=0;" edge="1" parent="8MP68DYETxA-DF6JIzfu-62" source="qbA84OS0jmrzjbinqBFZ-9" target="8MP68DYETxA-DF6JIzfu-50">
          <mxGeometry width="50" height="50" relative="1" as="geometry">
            <mxPoint x="30" y="260" as="sourcePoint" />
            <mxPoint x="80" y="210" as="targetPoint" />
            <Array as="points">
              <mxPoint x="60" y="90" />
              <mxPoint x="60" y="143" />
            </Array>
          </mxGeometry>
        </mxCell>
        <mxCell id="8MP68DYETxA-DF6JIzfu-70" value="" style="whiteSpace=wrap;html=1;aspect=fixed;" vertex="1" parent="1">
          <mxGeometry x="340" y="780" width="20" height="20" as="geometry" />
        </mxCell>
        <mxCell id="V1piQmJHkpiGvrlZvV0K-3" value="" style="endArrow=none;html=1;rounded=0;entryX=1;entryY=0.5;entryDx=0;entryDy=0;entryPerimeter=0;exitX=0;exitY=0.5;exitDx=0;exitDy=0;" edge="1" parent="1" source="V1piQmJHkpiGvrlZvV0K-1" target="8MP68DYETxA-DF6JIzfu-28">
          <mxGeometry width="50" height="50" relative="1" as="geometry">
            <mxPoint x="280" y="930" as="sourcePoint" />
            <mxPoint x="330" y="880" as="targetPoint" />
          </mxGeometry>
        </mxCell>
        <mxCell id="V1piQmJHkpiGvrlZvV0K-9" value="" style="shape=providedRequiredInterface;html=1;verticalLabelPosition=bottom;sketch=0;direction=south;" vertex="1" parent="1">
          <mxGeometry x="439" y="782" width="20" height="20" as="geometry" />
        </mxCell>
        <mxCell id="V1piQmJHkpiGvrlZvV0K-16" value="" style="endArrow=none;html=1;rounded=0;entryX=1;entryY=0.5;entryDx=0;entryDy=0;entryPerimeter=0;exitX=0.004;exitY=0.55;exitDx=0;exitDy=0;exitPerimeter=0;" edge="1" parent="1" source="8MP68DYETxA-DF6JIzfu-73" target="V1piQmJHkpiGvrlZvV0K-9">
          <mxGeometry width="50" height="50" relative="1" as="geometry">
            <mxPoint x="430" y="900" as="sourcePoint" />
            <mxPoint x="480" y="850" as="targetPoint" />
          </mxGeometry>
        </mxCell>
        <mxCell id="V1piQmJHkpiGvrlZvV0K-19" value="" style="endArrow=none;html=1;rounded=0;exitX=0.36;exitY=0.13;exitDx=0;exitDy=0;exitPerimeter=0;entryX=0;entryY=0.5;entryDx=0;entryDy=0;" edge="1" parent="1" source="V1piQmJHkpiGvrlZvV0K-9" target="8MP68DYETxA-DF6JIzfu-41">
          <mxGeometry width="50" height="50" relative="1" as="geometry">
            <mxPoint x="470" y="820" as="sourcePoint" />
            <mxPoint x="520" y="770" as="targetPoint" />
          </mxGeometry>
        </mxCell>
        <mxCell id="V1piQmJHkpiGvrlZvV0K-20" value="" style="endArrow=none;html=1;rounded=0;exitX=1;exitY=0.5;exitDx=0;exitDy=0;entryX=1;entryY=0.5;entryDx=0;entryDy=0;entryPerimeter=0;" edge="1" parent="1" source="8MP68DYETxA-DF6JIzfu-70" target="V1piQmJHkpiGvrlZvV0K-14">
          <mxGeometry width="50" height="50" relative="1" as="geometry">
            <mxPoint x="380" y="800" as="sourcePoint" />
            <mxPoint x="430" y="750" as="targetPoint" />
          </mxGeometry>
        </mxCell>
        <mxCell id="V1piQmJHkpiGvrlZvV0K-21" value="" style="whiteSpace=wrap;html=1;aspect=fixed;" vertex="1" parent="1">
          <mxGeometry x="910" y="780" width="20" height="20" as="geometry" />
        </mxCell>
        <mxCell id="qbA84OS0jmrzjbinqBFZ-13" value="" style="endArrow=none;html=1;rounded=0;exitX=1.014;exitY=0.337;exitDx=0;exitDy=0;exitPerimeter=0;" edge="1" parent="1">
          <mxGeometry width="50" height="50" relative="1" as="geometry">
            <mxPoint x="1421.52" y="845.3299999999999" as="sourcePoint" />
            <mxPoint x="1479" y="845" as="targetPoint" />
          </mxGeometry>
        </mxCell>
        <mxCell id="qbA84OS0jmrzjbinqBFZ-14" value="" style="endArrow=none;html=1;rounded=0;" edge="1" parent="1">
          <mxGeometry width="50" height="50" relative="1" as="geometry">
            <mxPoint x="1520" y="846" as="sourcePoint" />
            <mxPoint x="1588" y="846" as="targetPoint" />
          </mxGeometry>
        </mxCell>
        <mxCell id="qbA84OS0jmrzjbinqBFZ-4" value="&lt;font style=&quot;font-size: 18px;&quot;&gt;Control&lt;/font&gt;" style="text;html=1;align=center;verticalAlign=middle;whiteSpace=wrap;rounded=0;" vertex="1" parent="1">
          <mxGeometry x="690" y="580" width="60" height="30" as="geometry" />
        </mxCell>
        <mxCell id="qbA84OS0jmrzjbinqBFZ-16" value="" style="endArrow=none;html=1;rounded=0;entryX=0;entryY=0.5;entryDx=0;entryDy=0;exitX=1.02;exitY=0.322;exitDx=0;exitDy=0;exitPerimeter=0;" edge="1" parent="1" source="8MP68DYETxA-DF6JIzfu-44" target="V1piQmJHkpiGvrlZvV0K-21">
          <mxGeometry width="50" height="50" relative="1" as="geometry">
            <mxPoint x="760" y="920" as="sourcePoint" />
            <mxPoint x="810" y="870" as="targetPoint" />
            <Array as="points">
              <mxPoint x="800" y="930" />
              <mxPoint x="800" y="790" />
            </Array>
          </mxGeometry>
        </mxCell>
        <mxCell id="qbA84OS0jmrzjbinqBFZ-20" value="" style="endArrow=none;html=1;rounded=0;entryX=0;entryY=0.5;entryDx=0;entryDy=0;exitX=1;exitY=0.5;exitDx=0;exitDy=0;" edge="1" parent="1" source="V1piQmJHkpiGvrlZvV0K-21" target="qbA84OS0jmrzjbinqBFZ-9">
          <mxGeometry width="50" height="50" relative="1" as="geometry">
            <mxPoint x="960" y="790" as="sourcePoint" />
            <mxPoint x="1010" y="740" as="targetPoint" />
          </mxGeometry>
        </mxCell>
        <mxCell id="qbA84OS0jmrzjbinqBFZ-21" value="TCP" style="edgeLabel;html=1;align=center;verticalAlign=middle;resizable=0;points=[];" connectable="0" vertex="1" parent="qbA84OS0jmrzjbinqBFZ-20">
          <mxGeometry x="-0.0092" y="-1" relative="1" as="geometry">
            <mxPoint as="offset" />
          </mxGeometry>
        </mxCell>
        <mxCell id="xF27UyO0y4YUkrMNO3qR-1" value="&lt;font style=&quot;font-size: 18px;&quot;&gt;Model&lt;/font&gt;" style="text;html=1;align=center;verticalAlign=middle;whiteSpace=wrap;rounded=0;" vertex="1" parent="1">
          <mxGeometry x="1445" y="610" width="60" height="30" as="geometry" />
        </mxCell>
        <mxCell id="xF27UyO0y4YUkrMNO3qR-3" value="" style="whiteSpace=wrap;html=1;aspect=fixed;" vertex="1" parent="1">
          <mxGeometry x="160" y="814" width="20" height="20" as="geometry" />
        </mxCell>
        <mxCell id="qbA84OS0jmrzjbinqBFZ-2" value="&lt;font style=&quot;font-size: 21px;&quot;&gt;View&lt;/font&gt;" style="text;html=1;align=center;verticalAlign=middle;whiteSpace=wrap;rounded=0;rotation=0;" vertex="1" parent="1">
          <mxGeometry x="-140" y="610" width="60" height="30" as="geometry" />
        </mxCell>
      </root>
    </mxGraphModel>
  </diagram>
</mxfile>
